<svg id="Capa_1" data-name="Capa 1" xmlns="http://www.w3.org/2000/svg" viewBox="0 0 147.44 129.46"><defs><style>.cls-1{fill:#4e301f;}.cls-2{fill:#885f21;}.cls-3{fill:#78551f;}.cls-4{fill:#926526;}.cls-5{fill:#f5e5d3;}.cls-6{fill:#89ac62;}.cls-7{fill:#3a6234;}.cls-8{fill:#9dc275;}</style></defs><path class="cls-1" d="M250.87,459.14c2.92-7.18,10-5,21.61-16.59,5.09-5.07,6.13-7.88,11-9.78,7.36-2.89,14.61-.21,16.08.4,4.08,1.68,7.26,4.35,14.77,14.77,10.12,14,15.17,21.06,13.37,24.63-2.49,4.91-16.87,4.85-26,.7-2.18-1-5.53-2.87-10.24-2.69a19.17,19.17,0,0,0-8.46,2.53c-12.83,6.56-19.24,9.84-23.51,8.6C252.71,479.77,247.55,467.3,250.87,459.14Z" transform="translate(-224.35 -356.03)"/><path class="cls-1" d="M226.6,485.31c-1.61-3.19-3.23-7.37-1.54-9.33,2.18-2.53,7.91.87,10.32-1.72,2.91-3.12-3.11-10.5,0-14.33,2.26-2.78,6.61-.33,9.17-3.44s-.32-7.47,2.3-9.74c1.87-1.64,3.77.24,7.45-1.15,4.18-1.58,3.81-4.78,7.45-6.3,4-1.68,10-.14,12.61,3.43,2.9,4,.12,8.27,2.87,10.32,3,2.22,7.46-1.89,10.89.58,2.26,1.62.83,3.78,3.44,6.3,3.39,3.28,9.74,3.44,9.74,3.44h0s5.74-3.41,8-8.6c1.57-3.57.07-4.69,1.72-6.88,2.2-2.91,7.09-3.83,10.89-2.86,4.93,1.25,5.09,4.93,9.74,5.73,3.81.65,4.54-1.67,9.17-1.72,4.81-.05,10.95,2.37,13.19,6.88,2.45,4.95-1.78,8.4.57,12,3.35,5.17,13.94,1.2,16.62,5.73.95,1.59,1.18,4.71-3.44,11.46Z" transform="translate(-224.35 -356.03)"/><path class="cls-2" d="M235.57,467.66c-.45-1.15-2.08-5.32-.19-7.73,2-2.59,6-.5,8.38-3,2.8-2.95-1.09-7.76,1.26-11.34,2.49-3.8,11-4.28,17-1.26,6.29,3.17,4.92,7.78,13.24,13.86,4.87,3.56,7,3.16,8.82,6.3,2.55,4.3,1.89,10.64-1.26,15.13a15.69,15.69,0,0,1-8.31,5.85A65,65,0,0,1,248.17,479C239.53,474.75,236.79,470.8,235.57,467.66Z" transform="translate(-224.35 -356.03)"/><path class="cls-3" d="M237.41,465.72c1.72,1.56,4.07-.79,7.44,0,5.11,1.2,4.77,7.74,9.78,9.78s12.28-1.57,12.56-4.66c.26-2.82-5.56-3.16-10.24-10.23-2.39-3.62-2.66-6.25-4.65-6.52-2.38-.32-3.12,3.31-7.45,4.65-3.7,1.15-5.82-.69-7.44.94C235.93,461.15,236,464.4,237.41,465.72Z" transform="translate(-224.35 -356.03)"/><path class="cls-3" d="M259.63,446.65c-1.43-2-1.76-2.92-1.62-3.83.31-2,2.75-3.08,3.74-3.52,3.59-1.62,8.82-1.45,11.89,1.68a10,10,0,0,1,1.89,3c1,1.95,3.55,7.25,1.64,9.76-2.05,2.68-8.57,1.26-12.53-1.25C262.84,451.34,261.81,449.73,259.63,446.65Z" transform="translate(-224.35 -356.03)"/><path class="cls-4" d="M274.52,485.49a22.55,22.55,0,0,0,8.65-8.65c4.3-8.06.69-15.11,4.32-17.29s11.09,2.35,15.13,6.48c3.26,3.33,3,5.14,6.49,7.57,4.16,2.91,10.11,4.25,11.89,2.16,1.61-1.88-1.15-5.41.54-7,1.44-1.37,4.93-.25,7,1.09,2.37,1.51,3.44,3.59,5.4,7.56a55.33,55.33,0,0,1,3.24,8.11Z" transform="translate(-224.35 -356.03)"/><path class="cls-3" d="M305.2,474.11c-3.43-2.49-8.23-7.84-6.8-11.5,1.32-3.39,6.66-1.95,9.88-6.64,2.32-3.37.41-5.35,2.77-8.08,3.06-3.55,10.13-4.6,13.92-2,1.78,1.24,2.57,3.12,4,2.91s1.54-2.15,3-3c3.23-1.77,11,2.91,10.64,6.32-.34,3.7-10.81,2.86-13.57,9.56-1.32,3.21.54,4.71-1.13,8.43-2.27,5-7.79,6.78-8.49,7C312.41,479.35,306.42,475,305.2,474.11Z" transform="translate(-224.35 -356.03)"/><path class="cls-2" d="M247.11,486.7" transform="translate(-224.35 -356.03)"/><path class="cls-3" d="M286.26,437.82" transform="translate(-224.35 -356.03)"/><path class="cls-5" d="M295.14,438.81" transform="translate(-224.35 -356.03)"/><path class="cls-1" d="M325.73,415.23" transform="translate(-224.35 -356.03)"/><path class="cls-1" d="M282,383.22c2.82,7.37,4.1,9,4.72,8.87,1.22-.29.09-7.67,1.74-8.07.65-.16,1.48.83,1.9,1.6,1.19,2.22-.11,4.53-.8,7.48-.4,1.73-.2,4.48.2,10,.26,3.6.68,7.18,1.33,11.35,1.53,9.78,3.61,17.95,2.58,18.29-.36.12-.67-.83-1.77-1-1.66-.27-2.66,1.61-3.44,1.41-1.45-.36-.09-7.41-.3-14.87a74.31,74.31,0,0,0-3.69-20c-.35-1.1-.89-2.76-2-6.29-1.17-3.74-2.09-6.8-2.69-8.79" transform="translate(-224.35 -356.03)"/><path class="cls-6" d="M288.85,413.89a26.38,26.38,0,0,0,15.51-7.46c7.77-7.8,7.59-17.77,7.53-19.5a31.23,31.23,0,0,0-23,27Z" transform="translate(-224.35 -356.03)"/><path class="cls-7" d="M288.85,413.89c.8.16,11.06,2,18.51-5.54a20.58,20.58,0,0,0,4.53-21.42,30.68,30.68,0,0,1-23,27Z" transform="translate(-224.35 -356.03)"/><path class="cls-8" d="M293.93,405.27c-.53-.33,1.14-5.87,5.59-9.38,2.91-2.3,6.44-3.29,6.73-2.81s-2.56,2.12-6.9,6.42C295.47,403.37,294.29,405.49,293.93,405.27Z" transform="translate(-224.35 -356.03)"/><path class="cls-6" d="M288,389.48a26.42,26.42,0,0,0,11.78-12.54c4.44-10.08.68-19.31,0-20.91A31.26,31.26,0,0,0,288,389.48Z" transform="translate(-224.35 -356.03)"/><path class="cls-7" d="M288,389.48a26.42,26.42,0,0,0,11.78-12.54c4.44-10.08.68-19.31,0-20.91A106.09,106.09,0,0,1,288,389.48Z" transform="translate(-224.35 -356.03)"/><path class="cls-8" d="M289.66,379.61c-.62-.12-1.05-5.89,1.83-10.77,1.89-3.19,4.82-5.39,5.27-5s-1.63,2.9-4.12,8.48C290.4,377.28,290.07,379.68,289.66,379.61Z" transform="translate(-224.35 -356.03)"/><path class="cls-7" d="M319.77,420" transform="translate(-224.35 -356.03)"/><path class="cls-6" d="M281.66,386.21c-2.65,0-11-.24-17.94-5.71-8.94-7-8.63-17.29-8.54-19.08a33.51,33.51,0,0,1,17.16,7.31A27,27,0,0,1,281.66,386.21Z" transform="translate(-224.35 -356.03)"/><path class="cls-7" d="M281.66,386.21c-2.65,0-11-.24-17.94-5.71-8.94-7-8.63-17.29-8.54-19.08A91.51,91.51,0,0,0,266.4,374.3,98.71,98.71,0,0,0,281.66,386.21Z" transform="translate(-224.35 -356.03)"/><path class="cls-8" d="M275.84,378c.62-.41-1.27-5.88-6.4-8.93-3.35-2-7.44-2.57-7.78-2s3,1.85,7.94,5.73C274.08,376.24,275.43,378.27,275.84,378Z" transform="translate(-224.35 -356.03)"/></svg>