<svg id="Capa_1" data-name="Capa 1" xmlns="http://www.w3.org/2000/svg" viewBox="0 0 215.7 299.8"><defs><style>.cls-1{fill:#4e301f;}.cls-2{fill:#89ac62;}.cls-3{fill:#3a6234;}.cls-4{fill:#9dc275;}.cls-5{fill:#885f21;}.cls-6{fill:#78551f;}.cls-7{fill:#926526;}.cls-8{fill:#f5e5d3;}</style></defs><path class="cls-1" d="M258,321.79c1.73,8,2.93,10.06,3.75,10.12,1.62.1,2-7.41,4.19-7.27.86.06,1.67,1.28,2,2.16.95,2.54-1.26,4.36-2.86,7-.93,1.54-1.35,4.27-2.2,9.74A105.6,105.6,0,0,0,261.74,355c-.48,10,.13,18.56-1.25,18.56-.48,0-.65-1-2-1.55-2-.79-3.75.71-4.69.27-1.73-.82,1.72-7.21,3.29-14.51,1.9-8.79.72-17.3.27-20.53-.16-1.18-.44-3-1-6.74-.55-4-1-7.25-1.23-9.38" transform="translate(-189.79 -271.47)"/><path class="cls-2" d="M301.39,304.92a26.4,26.4,0,0,0,11.78-12.55,27,27,0,0,0,0-20.9,31.25,31.25,0,0,0-11.78,33.45Z" transform="translate(-189.79 -271.47)"/><path class="cls-3" d="M301.39,304.92a26.4,26.4,0,0,0,11.78-12.55,27,27,0,0,0,0-20.9,106.32,106.32,0,0,1-11.78,33.45Z" transform="translate(-189.79 -271.47)"/><path class="cls-4" d="M300,294.94c-.61-.12-1.05-5.88,1.84-10.76,1.88-3.2,4.82-5.39,5.26-5s-1.63,2.89-4.12,8.47C300.79,292.61,300.45,295,300,294.94Z" transform="translate(-189.79 -271.47)"/><path class="cls-2" d="M298.69,304.72c-2.65,0-11-.25-17.93-5.71-8.95-7-8.64-17.3-8.55-19.08a33.3,33.3,0,0,1,17.16,7.31A27,27,0,0,1,298.69,304.72Z" transform="translate(-189.79 -271.47)"/><path class="cls-3" d="M298.69,304.72c-2.65,0-11-.25-17.93-5.71-8.95-7-8.64-17.3-8.55-19.08a92.78,92.78,0,0,0,11.23,12.88A98.81,98.81,0,0,0,298.69,304.72Z" transform="translate(-189.79 -271.47)"/><path class="cls-4" d="M292.87,296.5c.62-.41-1.26-5.88-6.39-8.93-3.36-2-7.45-2.57-7.79-2s3,1.85,7.95,5.72C291.11,294.74,292.46,296.77,292.87,296.5Z" transform="translate(-189.79 -271.47)"/><path class="cls-1" d="M261.32,371.19C271.57,398,276.2,404,278.45,403.43c4.45-1.07.33-27.88,6.34-29.32,2.36-.57,5.38,3,6.89,5.8,4.34,8.09-.41,16.47-2.91,27.2-1.46,6.28-.73,16.27.73,36.26.95,13.08,2.46,26.09,4.83,41.25,5.56,35.53,13.13,65.19,9.38,66.43-1.3.43-2.45-3-6.43-3.67-6-1-9.66,5.87-12.49,5.15-5.27-1.35-.32-26.93-1.09-54-.93-32.65-10-61.54-13.42-72.52C269,422,267,416,263,403.12s-8.48-27.57-9.79-31.91" transform="translate(-189.79 -271.47)"/><path class="cls-1" d="M297.09,302c-.13,17.47,1.16,21.9,2.56,22.1,2.76.37,6.37-15.75,10.1-15.24,1.47.21,2.39,2.91,2.62,4.82.67,5.55-3.88,9.26-7.68,14.79-2.22,3.24-4,9.07-7.63,20.73-2.36,7.63-4.39,15.35-6.41,24.47-4.72,21.4-7,39.9-9.41,39.77-.83,0-.72-2.25-2.83-3.5-3.2-1.9-6.78,1.18-8.23.14-2.69-1.92,5.79-15.34,11.37-30.89,6.71-18.73,8-37.13,8.47-44.12.18-2.54.39-6.4,1-14.57.6-8.65,1.15-15.69,1.52-20.28" transform="translate(-189.79 -271.47)"/><path class="cls-1" d="M214.09,374.15c11.9,6.15,15.38,6.8,16,5.91,1.22-1.76-8.55-9.82-6.91-12.19.65-.93,2.82-.63,4.21-.12,4,1.47,5,5.87,7.45,10.38,1.44,2.65,4.8,5.9,11.53,12.42,4.39,4.26,9,8.32,14.5,12.87,13,10.65,24.85,18.64,23.93,20.24-.32.55-1.79-.29-3.38.72-2.4,1.52-1.54,5-2.75,5.67-2.26,1.17-8.49-9.28-17.19-18.49-10.47-11.09-22.61-18.34-27.23-21.1-1.67-1-4.24-2.49-9.63-5.71-5.7-3.41-10.32-6.23-13.33-8.08" transform="translate(-189.79 -271.47)"/><path class="cls-1" d="M225.47,304.79c6.35,13.53,9,16.47,10.14,16.11,2.27-.73-.9-14.51,2.17-15.48,1.2-.39,2.91,1.35,3.8,2.75,2.57,4,.42,8.57-.47,14.24-.52,3.32.24,8.49,1.76,18.82,1.22,8.28,2.49,13.87,4.09,21.24,7.75,35.77,7.15,38.13,7,38.15s-.37-4.37-3.08-5.65c-2.29-1.07-4.21,1.08-6,.55-3.72-1.12-1.83-12.43-2.95-25.43,0,0-1.55-16.49-9.74-37.17-.8-2-2.06-5.09-4.64-11.6s-5.46-14-6.31-16.21" transform="translate(-189.79 -271.47)"/><path class="cls-1" d="M302.11,413.58c-.07,10,.67,12.57,1.48,12.68,1.58.22,3.65-9,5.79-8.74.84.12,1.37,1.67,1.51,2.77.38,3.18-2.23,5.31-4.41,8.48-1.28,1.86-2.31,5.21-4.38,11.9-1.35,4.38-2.52,8.81-3.68,14-2.71,12.28-4,22.9-5.4,22.82-.47,0-.41-1.29-1.62-2-1.84-1.09-3.9.68-4.73.09-1.54-1.11,3.33-8.81,6.53-17.73a95.11,95.11,0,0,0,4.86-25.32c.1-1.46.22-3.67.55-8.36.34-5,.66-9,.87-11.64" transform="translate(-189.79 -271.47)"/><path class="cls-2" d="M236.91,343.09a26.42,26.42,0,0,0,15.51-7.46,27,27,0,0,0,7.53-19.5,31.23,31.23,0,0,0-23,27Z" transform="translate(-189.79 -271.47)"/><path class="cls-3" d="M236.91,343.09c.8.16,11.07,2,18.52-5.54A20.58,20.58,0,0,0,260,316.13a30.65,30.65,0,0,1-23,27Z" transform="translate(-189.79 -271.47)"/><path class="cls-4" d="M242,334.47c-.53-.34,1.14-5.87,5.59-9.38,2.9-2.3,6.44-3.3,6.72-2.81s-2.56,2.11-6.89,6.42C243.53,332.56,242.35,334.69,242,334.47Z" transform="translate(-189.79 -271.47)"/><path class="cls-2" d="M236.08,318.68a26.37,26.37,0,0,0,11.79-12.54,27,27,0,0,0,0-20.91,31.29,31.29,0,0,0-11.79,33.45Z" transform="translate(-189.79 -271.47)"/><path class="cls-3" d="M236.08,318.68a26.37,26.37,0,0,0,11.79-12.54,27,27,0,0,0,0-20.91,105.79,105.79,0,0,1-11.79,33.45Z" transform="translate(-189.79 -271.47)"/><path class="cls-4" d="M237.73,308.8c-.62-.11-1-5.88,1.83-10.76,1.88-3.19,4.82-5.39,5.27-5s-1.64,2.9-4.13,8.48C238.47,306.48,238.13,308.88,237.73,308.8Z" transform="translate(-189.79 -271.47)"/><path class="cls-2" d="M229.72,315.41c-2.64,0-11-.25-17.93-5.71-8.94-7-8.64-17.29-8.55-19.08a33.36,33.36,0,0,1,17.16,7.31A26.93,26.93,0,0,1,229.72,315.41Z" transform="translate(-189.79 -271.47)"/><path class="cls-3" d="M229.72,315.41c-2.64,0-11-.25-17.93-5.71-8.94-7-8.64-17.29-8.55-19.08a92.3,92.3,0,0,0,11.23,12.88A98.67,98.67,0,0,0,229.72,315.41Z" transform="translate(-189.79 -271.47)"/><path class="cls-4" d="M223.9,307.2c.63-.41-1.26-5.88-6.39-8.93-3.35-2-7.44-2.58-7.78-2s3,1.85,7.94,5.73C222.14,305.43,223.49,307.47,223.9,307.2Z" transform="translate(-189.79 -271.47)"/><path class="cls-2" d="M294.09,425.74a26.39,26.39,0,0,0,15.51-7.46,27,27,0,0,0,7.53-19.5,31.27,31.27,0,0,0-23,27Z" transform="translate(-189.79 -271.47)"/><path class="cls-3" d="M294.09,425.74c.81.16,11.07,2,18.52-5.55a20.54,20.54,0,0,0,4.52-21.41,30.65,30.65,0,0,1-23,27Z" transform="translate(-189.79 -271.47)"/><path class="cls-4" d="M299.18,417.11c-.53-.33,1.14-5.86,5.59-9.38,2.9-2.3,6.44-3.29,6.73-2.8s-2.57,2.11-6.9,6.42C300.71,415.21,299.53,417.33,299.18,417.11Z" transform="translate(-189.79 -271.47)"/><path class="cls-2" d="M293.27,401.33a26.42,26.42,0,0,0,11.78-12.54,27,27,0,0,0,0-20.91,31.25,31.25,0,0,0-11.78,33.45Z" transform="translate(-189.79 -271.47)"/><path class="cls-3" d="M293.27,401.33a26.42,26.42,0,0,0,11.78-12.54,27,27,0,0,0,0-20.91,106.09,106.09,0,0,1-11.78,33.45Z" transform="translate(-189.79 -271.47)"/><path class="cls-4" d="M294.91,391.45c-.62-.11-1.05-5.88,1.83-10.76,1.88-3.19,4.82-5.39,5.27-5s-1.63,2.89-4.13,8.47C295.65,389.12,295.31,391.53,294.91,391.45Z" transform="translate(-189.79 -271.47)"/><path class="cls-2" d="M286.91,398.06c-2.65,0-11-.25-17.94-5.71-8.94-7-8.63-17.29-8.55-19.08a33.27,33.27,0,0,1,17.16,7.31A26.94,26.94,0,0,1,286.91,398.06Z" transform="translate(-189.79 -271.47)"/><path class="cls-3" d="M286.91,398.06c-2.65,0-11-.25-17.94-5.71-8.94-7-8.63-17.29-8.55-19.08a92.87,92.87,0,0,0,11.23,12.88A98.24,98.24,0,0,0,286.91,398.06Z" transform="translate(-189.79 -271.47)"/><path class="cls-4" d="M281.08,389.84c.63-.4-1.26-5.88-6.39-8.93-3.35-2-7.44-2.57-7.78-2s2.95,1.85,7.94,5.73C279.32,388.08,280.67,390.11,281.08,389.84Z" transform="translate(-189.79 -271.47)"/><path class="cls-2" d="M262.78,331.78a26.51,26.51,0,0,0,15.51-7.46,27,27,0,0,0,7.53-19.51,31.26,31.26,0,0,0-23,27Z" transform="translate(-189.79 -271.47)"/><path class="cls-3" d="M262.78,331.78c.8.15,11.07,2,18.52-5.55a20.58,20.58,0,0,0,4.52-21.42,30.65,30.65,0,0,1-23,27Z" transform="translate(-189.79 -271.47)"/><path class="cls-4" d="M267.87,323.15c-.54-.33,1.14-5.86,5.58-9.38,2.91-2.3,6.45-3.29,6.73-2.8s-2.56,2.11-6.89,6.42C269.4,321.25,268.22,323.37,267.87,323.15Z" transform="translate(-189.79 -271.47)"/><path class="cls-2" d="M222.66,380.12a26.45,26.45,0,0,0,11.78-12.55,27,27,0,0,0,0-20.9,31.25,31.25,0,0,0-11.78,33.45Z" transform="translate(-189.79 -271.47)"/><path class="cls-3" d="M222.66,380.12a26.45,26.45,0,0,0,11.78-12.55,27,27,0,0,0,0-20.9,106.32,106.32,0,0,1-11.78,33.45Z" transform="translate(-189.79 -271.47)"/><path class="cls-4" d="M224.3,370.24c-.62-.12-1.05-5.88,1.83-10.76,1.88-3.2,4.82-5.39,5.27-5s-1.63,2.89-4.13,8.47C225,367.91,224.71,370.32,224.3,370.24Z" transform="translate(-189.79 -271.47)"/><path class="cls-2" d="M216.3,376.85c-2.65,0-11-.25-17.94-5.71-8.94-7.05-8.63-17.3-8.55-19.08a33.38,33.38,0,0,1,17.17,7.3A27,27,0,0,1,216.3,376.85Z" transform="translate(-189.79 -271.47)"/><path class="cls-3" d="M216.3,376.85c-2.65,0-11-.25-17.94-5.71-8.94-7.05-8.63-17.3-8.55-19.08A93.45,93.45,0,0,0,201,364.94,98.85,98.85,0,0,0,216.3,376.85Z" transform="translate(-189.79 -271.47)"/><path class="cls-4" d="M210.47,368.63c.63-.41-1.26-5.88-6.39-8.93-3.35-2-7.44-2.57-7.78-2s2.95,1.84,7.94,5.72C208.71,366.87,210.06,368.9,210.47,368.63Z" transform="translate(-189.79 -271.47)"/><path class="cls-2" d="M303.3,319.61a26.39,26.39,0,0,0,15.51-7.46,27,27,0,0,0,7.53-19.51,31.3,31.3,0,0,0-23,27Z" transform="translate(-189.79 -271.47)"/><path class="cls-3" d="M303.3,319.61c.81.15,11.07,2,18.52-5.55a20.56,20.56,0,0,0,4.52-21.42,30.65,30.65,0,0,1-23,27Z" transform="translate(-189.79 -271.47)"/><path class="cls-4" d="M308.05,311.06c-.54-.33,1.14-5.86,5.58-9.38,2.91-2.3,6.44-3.29,6.73-2.8s-2.56,2.11-6.9,6.42C309.58,309.16,308.4,311.28,308.05,311.06Z" transform="translate(-189.79 -271.47)"/><path class="cls-2" d="M245.7,397.87a26.42,26.42,0,0,0,15.51-7.46,27,27,0,0,0,7.53-19.51,31.26,31.26,0,0,0-23,27Z" transform="translate(-189.79 -271.47)"/><path class="cls-3" d="M245.7,397.87c.8.15,11.07,2,18.52-5.55a20.58,20.58,0,0,0,4.52-21.42,30.65,30.65,0,0,1-23,27Z" transform="translate(-189.79 -271.47)"/><path class="cls-4" d="M250.79,389.24c-.53-.33,1.14-5.86,5.59-9.38,2.9-2.3,6.44-3.29,6.72-2.8s-2.56,2.11-6.89,6.42C252.32,387.34,251.14,389.46,250.79,389.24Z" transform="translate(-189.79 -271.47)"/><path class="cls-2" d="M244.87,373.46a26.36,26.36,0,0,0,11.79-12.55,27,27,0,0,0,0-20.9A31.42,31.42,0,0,0,246,353.69,31.83,31.83,0,0,0,244.87,373.46Z" transform="translate(-189.79 -271.47)"/><path class="cls-3" d="M244.87,373.46a26.36,26.36,0,0,0,11.79-12.55,27,27,0,0,0,0-20.9,106,106,0,0,1-11.79,33.45Z" transform="translate(-189.79 -271.47)"/><path class="cls-4" d="M246.52,363.58c-.62-.12-1.05-5.88,1.83-10.76,1.88-3.2,4.82-5.39,5.27-5s-1.64,2.89-4.13,8.47C247.26,361.25,246.92,363.66,246.52,363.58Z" transform="translate(-189.79 -271.47)"/><path class="cls-2" d="M238.51,370.19c-2.64,0-11-.25-17.93-5.71-8.94-7.05-8.64-17.3-8.55-19.08a33.32,33.32,0,0,1,17.16,7.3A26.9,26.9,0,0,1,238.51,370.19Z" transform="translate(-189.79 -271.47)"/><path class="cls-3" d="M238.51,370.19c-2.64,0-11-.25-17.93-5.71-8.94-7.05-8.64-17.3-8.55-19.08a93.45,93.45,0,0,0,11.23,12.88A99.29,99.29,0,0,0,238.51,370.19Z" transform="translate(-189.79 -271.47)"/><path class="cls-4" d="M232.69,362c.63-.41-1.26-5.88-6.39-8.93-3.35-2-7.44-2.57-7.78-2s2.95,1.84,7.94,5.72C230.93,360.21,232.28,362.24,232.69,362Z" transform="translate(-189.79 -271.47)"/><path class="cls-2" d="M289.33,380.41A26.44,26.44,0,0,0,304.84,373a27,27,0,0,0,7.53-19.5,31.23,31.23,0,0,0-23,27Z" transform="translate(-189.79 -271.47)"/><path class="cls-3" d="M289.33,380.41c.8.15,11.07,2,18.52-5.55a20.58,20.58,0,0,0,4.52-21.41,30.65,30.65,0,0,1-23,27Z" transform="translate(-189.79 -271.47)"/><path class="cls-4" d="M294.42,371.78c-.54-.33,1.14-5.86,5.58-9.38,2.91-2.3,6.44-3.29,6.73-2.8s-2.56,2.11-6.9,6.42C296,369.88,294.77,372,294.42,371.78Z" transform="translate(-189.79 -271.47)"/><path class="cls-2" d="M288.5,356a26.4,26.4,0,0,0,11.78-12.55,27,27,0,0,0,0-20.9A31.25,31.25,0,0,0,288.5,356Z" transform="translate(-189.79 -271.47)"/><path class="cls-3" d="M288.5,356a26.4,26.4,0,0,0,11.78-12.55,27,27,0,0,0,0-20.9A106.32,106.32,0,0,1,288.5,356Z" transform="translate(-189.79 -271.47)"/><path class="cls-4" d="M290.14,346.12c-.62-.12-1.05-5.88,1.83-10.76,1.89-3.2,4.83-5.39,5.27-5s-1.63,2.89-4.12,8.47C290.89,343.79,290.55,346.2,290.14,346.12Z" transform="translate(-189.79 -271.47)"/><path class="cls-2" d="M282.14,352.73c-2.65,0-11-.25-17.93-5.71-8.95-7-8.64-17.3-8.55-19.08a33.35,33.35,0,0,1,17.16,7.3A27,27,0,0,1,282.14,352.73Z" transform="translate(-189.79 -271.47)"/><path class="cls-3" d="M282.14,352.73c-2.65,0-11-.25-17.93-5.71-8.95-7-8.64-17.3-8.55-19.08a93.32,93.32,0,0,0,11.22,12.88A99.33,99.33,0,0,0,282.14,352.73Z" transform="translate(-189.79 -271.47)"/><path class="cls-4" d="M276.32,344.51c.62-.41-1.27-5.88-6.39-8.93-3.36-2-7.45-2.57-7.79-2s3,1.85,7.95,5.72C274.56,342.75,275.91,344.78,276.32,344.51Z" transform="translate(-189.79 -271.47)"/><path class="cls-2" d="M293.54,305.45A26.42,26.42,0,0,0,309.05,298a27,27,0,0,0,7.53-19.5,31.23,31.23,0,0,0-23,27Z" transform="translate(-189.79 -271.47)"/><path class="cls-3" d="M293.54,305.27c.8.16,11.07,2,18.52-5.55a20.56,20.56,0,0,0,4.52-21.41,30.65,30.65,0,0,1-23,27Z" transform="translate(-189.79 -271.47)"/><path class="cls-4" d="M298.63,296.64c-.54-.33,1.14-5.86,5.59-9.38,2.9-2.3,6.44-3.29,6.72-2.8s-2.56,2.11-6.89,6.42C300.16,294.74,299,296.86,298.63,296.64Z" transform="translate(-189.79 -271.47)"/><path class="cls-2" d="M298.59,330a26.37,26.37,0,0,0,11.79-12.54,27,27,0,0,0,0-20.91A31.25,31.25,0,0,0,298.59,330Z" transform="translate(-189.79 -271.47)"/><path class="cls-3" d="M298.59,330a26.37,26.37,0,0,0,11.79-12.54,27,27,0,0,0,0-20.91A105.79,105.79,0,0,1,298.59,330Z" transform="translate(-189.79 -271.47)"/><path class="cls-4" d="M300.23,320.09c-.61-.12-1.05-5.89,1.84-10.77,1.88-3.19,4.82-5.39,5.26-5s-1.63,2.9-4.12,8.48C301,317.76,300.64,320.16,300.23,320.09Z" transform="translate(-189.79 -271.47)"/><path class="cls-2" d="M292.23,326.69c-2.65,0-11-.24-17.93-5.71-8.95-7-8.64-17.29-8.55-19.08a33.48,33.48,0,0,1,17.16,7.31A27,27,0,0,1,292.23,326.69Z" transform="translate(-189.79 -271.47)"/><path class="cls-3" d="M292.23,326.69c-2.65,0-11-.24-17.93-5.71-8.95-7-8.64-17.29-8.55-19.08A91.64,91.64,0,0,0,277,314.78,98.2,98.2,0,0,0,292.23,326.69Z" transform="translate(-189.79 -271.47)"/><path class="cls-4" d="M286.41,318.48c.63-.41-1.26-5.88-6.39-8.93-3.35-2-7.45-2.57-7.79-2s3,1.85,7.95,5.73C284.65,316.72,286,318.75,286.41,318.48Z" transform="translate(-189.79 -271.47)"/><path class="cls-2" d="M313.79,401.32a26.4,26.4,0,0,0,16.09,6.11,27,27,0,0,0,19.32-8,31.25,31.25,0,0,0-35.41,1.86Z" transform="translate(-189.79 -271.47)"/><path class="cls-3" d="M313.79,401.32c.43.69,6.17,9.4,16.77,9.61a20.58,20.58,0,0,0,18.64-11.47,30.63,30.63,0,0,1-35.41,1.86Z" transform="translate(-189.79 -271.47)"/><path class="cls-4" d="M323.54,399.07c-.12-.62,5-3.21,10.65-2.41,3.67.52,6.82,2.4,6.67,2.95s-3.3-.41-9.41-.58C326,398.87,323.63,399.48,323.54,399.07Z" transform="translate(-189.79 -271.47)"/><path class="cls-2" d="M230.78,379.35a25.41,25.41,0,0,0-15.89-5.61c-10.83.07-17.76,7.22-18.94,8.48a30.41,30.41,0,0,0,16.48,4.11A31.7,31.7,0,0,0,230.78,379.35Z" transform="translate(-189.79 -271.47)"/><path class="cls-3" d="M230.78,379.35a25.41,25.41,0,0,0-15.89-5.61c-10.83.07-17.76,7.22-18.94,8.48a104.13,104.13,0,0,1,34.83-2.87Z" transform="translate(-189.79 -271.47)"/><path class="cls-4" d="M221.2,381.87c.13.61-4.93,3.33-10.46,2.7-3.62-.42-6.73-2.19-6.58-2.74s3.24.31,9.25.31C218.8,382.14,221.11,381.47,221.2,381.87Z" transform="translate(-189.79 -271.47)"/><path class="cls-2" d="M230.25,386.45c1,2.4,4,10.08,1.7,18.59a23.43,23.43,0,0,1-14,15.49A33.49,33.49,0,0,1,218,402,27.47,27.47,0,0,1,230.25,386.45Z" transform="translate(-189.79 -271.47)"/><path class="cls-3" d="M230.25,386.45c1,2.4,4,10.08,1.7,18.59a23.43,23.43,0,0,1-14,15.49,95.18,95.18,0,0,0,7.38-15.41A100.44,100.44,0,0,0,230.25,386.45Z" transform="translate(-189.79 -271.47)"/><path class="cls-4" d="M225,395.06c-.61-.4-4.85,3.53-5.65,9.42-.52,3.86.53,7.8,1.14,7.89s.54-3.43,2.15-9.53C224.12,397.38,225.44,395.33,225,395.06Z" transform="translate(-189.79 -271.47)"/><path class="cls-2" d="M256.25,330a26.44,26.44,0,0,0,15.51-7.46A27,27,0,0,0,279.29,303a31.26,31.26,0,0,0-23,27Z" transform="translate(-189.79 -271.47)"/><path class="cls-3" d="M256.25,330c.8.15,11.07,2,18.52-5.55A20.58,20.58,0,0,0,279.29,303a30.65,30.65,0,0,1-23,27Z" transform="translate(-189.79 -271.47)"/><path class="cls-4" d="M261.34,321.35c-.54-.33,1.14-5.86,5.58-9.38,2.91-2.3,6.44-3.29,6.73-2.8s-2.56,2.11-6.9,6.42C262.87,319.45,261.69,321.57,261.34,321.35Z" transform="translate(-189.79 -271.47)"/><path class="cls-2" d="M253.4,305.06a26.42,26.42,0,0,0,11.78-12.54,27,27,0,0,0,0-20.91,31.26,31.26,0,0,0-11.78,33.45Z" transform="translate(-189.79 -271.47)"/><path class="cls-3" d="M253.4,305.06a26.42,26.42,0,0,0,11.78-12.54,27,27,0,0,0,0-20.91,106.09,106.09,0,0,1-11.78,33.45Z" transform="translate(-189.79 -271.47)"/><path class="cls-4" d="M255,295.18c-.62-.11-1-5.88,1.83-10.76,1.89-3.19,4.82-5.39,5.27-5s-1.63,2.9-4.12,8.48C255.78,292.86,255.45,295.26,255,295.18Z" transform="translate(-189.79 -271.47)"/><path class="cls-2" d="M249.06,302.3c-2.65,0-11-.25-17.93-5.71-8.95-7-8.64-17.3-8.55-19.08a33.35,33.35,0,0,1,17.16,7.3A27,27,0,0,1,249.06,302.3Z" transform="translate(-189.79 -271.47)"/><path class="cls-3" d="M249.06,302.3c-2.65,0-11-.25-17.93-5.71-8.95-7-8.64-17.3-8.55-19.08a92.78,92.78,0,0,0,11.23,12.88A98.81,98.81,0,0,0,249.06,302.3Z" transform="translate(-189.79 -271.47)"/><path class="cls-4" d="M243.24,294.08c.62-.41-1.26-5.88-6.39-8.93-3.36-2-7.45-2.57-7.79-2s3,1.84,7.95,5.72C241.48,292.32,242.83,294.35,243.24,294.08Z" transform="translate(-189.79 -271.47)"/><path class="cls-1" d="M199.91,571c-2.28-4.53-4.56-10.44-2.17-13.22,3.08-3.57,11.18,1.23,14.61-2.43,4.12-4.42-4.4-14.87,0-20.29,3.19-3.94,9.35-.47,13-4.87s-.45-10.57,3.25-13.8c2.65-2.31,5.34.34,10.55-1.62,5.91-2.23,5.4-6.77,10.55-8.93,5.66-2.37,14.14-.19,17.86,4.87,4.11,5.6.17,11.7,4,14.61,4.21,3.14,10.57-2.69,15.42.81,3.2,2.3,1.18,5.36,4.87,8.93,4.8,4.64,13.8,4.87,13.8,4.87h0s8.12-4.82,11.36-12.17c2.23-5.06.11-6.65,2.44-9.74,3.11-4.13,10-5.43,15.42-4.06,7,1.77,7.21,7,13.8,8.11,5.39.93,6.42-2.36,13-2.43,6.82-.08,15.51,3.36,18.67,9.74,3.47,7-2.52,11.9.81,17,4.75,7.33,19.74,1.71,23.54,8.12,1.33,2.26,1.67,6.67-4.87,16.23Z" transform="translate(-189.79 -271.47)"/><path class="cls-5" d="M212.61,546c-.64-1.63-2.94-7.53-.26-10.95,2.87-3.67,8.53-.71,11.86-4.22,4-4.18-1.55-11,1.78-16.06,3.53-5.37,15.63-6,24.09-1.78,8.91,4.49,7,11,18.74,19.63,6.89,5,9.85,4.47,12.49,8.92,3.61,6.09,2.69,15-1.79,21.41a22.17,22.17,0,0,1-11.76,8.29,92,92,0,0,1-37.31-9.18C218.23,556.06,214.34,550.47,212.61,546Z" transform="translate(-189.79 -271.47)"/><path class="cls-6" d="M215.22,543.28c2.43,2.21,5.76-1.12,10.54,0,7.22,1.7,6.75,11,13.84,13.84s17.38-2.22,17.79-6.59c.37-4-7.88-4.48-14.5-14.49-3.38-5.12-3.78-8.85-6.59-9.23-3.38-.46-4.41,4.69-10.54,6.59-5.24,1.62-8.24-1-10.54,1.32C213.13,536.81,213.15,541.41,215.22,543.28Z" transform="translate(-189.79 -271.47)"/><path class="cls-6" d="M246.69,516.27c-2-2.89-2.51-4.13-2.31-5.41.44-2.82,3.89-4.37,5.3-5,5.08-2.28,12.48-2.05,16.83,2.38a14.29,14.29,0,0,1,2.68,4.25c1.36,2.76,5,10.27,2.32,13.83-2.9,3.79-12.13,1.78-17.73-1.78C251.23,522.92,249.76,520.63,246.69,516.27Z" transform="translate(-189.79 -271.47)"/><path class="cls-7" d="M267.76,571.27A31.79,31.79,0,0,0,280,559c6.1-11.41,1-21.39,6.13-24.48s15.7,3.33,21.42,9.18c4.62,4.72,4.27,7.27,9.19,10.71,5.89,4.13,14.31,6,16.83,3.06,2.28-2.66-1.63-7.66.77-9.94,2-1.94,7-.36,10,1.53,3.36,2.13,4.87,5.09,7.65,10.71a79.26,79.26,0,0,1,4.59,11.48Z" transform="translate(-189.79 -271.47)"/><path class="cls-6" d="M311.21,555.16c-4.86-3.53-11.66-11.1-9.64-16.28,1.87-4.8,9.43-2.77,14-9.41,3.28-4.77.58-7.58,3.92-11.43,4.34-5,14.35-6.53,19.71-2.79,2.52,1.76,3.64,4.42,5.73,4.13s2.2-3,4.3-4.2c4.57-2.5,15.51,4.13,15.07,9-.49,5.25-15.31,4-19.22,13.54-1.87,4.54.77,6.67-1.6,11.94-3.21,7.11-11,9.6-12,9.9C321.41,562.58,312.93,556.42,311.21,555.16Z" transform="translate(-189.79 -271.47)"/><path class="cls-5" d="M240.1,571.11" transform="translate(-189.79 -271.47)"/><path class="cls-6" d="M284.39,503.77" transform="translate(-189.79 -271.47)"/><path class="cls-8" d="M297,505.17" transform="translate(-189.79 -271.47)"/><path class="cls-1" d="M389.8,435" transform="translate(-189.79 -271.47)"/><path class="cls-3" d="M378.46,444.14" transform="translate(-189.79 -271.47)"/></svg>