<svg id="Capa_1" data-name="Capa 1" xmlns="http://www.w3.org/2000/svg" viewBox="0 0 98.23 48.38"><defs><style>.cls-1{fill:#4e301f;}.cls-2{fill:#885f21;}.cls-3{fill:#78551f;}.cls-4{fill:#926526;}.cls-5{fill:#ccb098;}.cls-6{fill:#f5e5d3;}</style></defs><path class="cls-1" d="M250.39,445.32c-1.07-2.13-2.15-4.92-1-6.22,1.45-1.69,5.26.58,6.87-1.15,1.95-2.08-2.07-7,0-9.55,1.51-1.85,4.41-.22,6.12-2.29s-.22-5,1.52-6.49c1.25-1.09,2.52.16,5-.76,2.78-1.05,2.54-3.19,5-4.2a7.64,7.64,0,0,1,8.4,2.29c1.94,2.63.08,5.5,1.91,6.87,2,1.48,5-1.26,7.26.38,1.5,1.09.55,2.53,2.29,4.2,2.26,2.19,6.49,2.3,6.49,2.3h0s3.82-2.27,5.35-5.73c1.05-2.38.05-3.13,1.15-4.59,1.46-1.94,4.72-2.55,7.25-1.91,3.29.84,3.39,3.29,6.5,3.82,2.53.44,3-1.11,6.11-1.14s7.29,1.58,8.78,4.58c1.63,3.3-1.19,5.6.38,8,2.24,3.45,9.29.81,11.08,3.82.63,1.06.78,3.14-2.29,7.64Z" transform="translate(-248.89 -397.05)"/><path class="cls-2" d="M256.37,433.56c-.3-.77-1.38-3.55-.13-5.16s4-.33,5.59-2c1.86-2-.73-5.17.84-7.56S270,416,274,418c4.19,2.12,3.28,5.19,8.82,9.24,3.24,2.37,4.63,2.1,5.88,4.2,1.7,2.86,1.26,7.08-.84,10.07a10.45,10.45,0,0,1-5.54,3.9,43.17,43.17,0,0,1-17.56-4.32C259,438.28,257.18,435.65,256.37,433.56Z" transform="translate(-248.89 -397.05)"/><path class="cls-3" d="M257.6,432.26c1.14,1,2.71-.52,5,0,3.4.8,3.17,5.16,6.51,6.52s8.18-1,8.37-3.1c.17-1.89-3.71-2.11-6.82-6.83-1.6-2.41-1.78-4.16-3.1-4.34-1.59-.21-2.08,2.21-5,3.1-2.47.77-3.88-.46-5,.62A3.12,3.12,0,0,0,257.6,432.26Z" transform="translate(-248.89 -397.05)"/><path class="cls-3" d="M272.4,419.55c-.95-1.36-1.18-1.94-1.08-2.54.21-1.33,1.83-2.06,2.49-2.35,2.39-1.08,5.88-1,7.92,1.12a6.61,6.61,0,0,1,1.26,2c.64,1.3,2.37,4.84,1.09,6.51s-5.71.84-8.34-.83C274.54,422.68,273.85,421.61,272.4,419.55Z" transform="translate(-248.89 -397.05)"/><path class="cls-4" d="M282.32,445.43a15,15,0,0,0,5.76-5.76c2.87-5.37.46-10.07,2.88-11.52s7.39,1.56,10.09,4.32c2.17,2.22,2,3.42,4.32,5,2.77,1.94,6.73,2.83,7.92,1.44s-.77-3.6.36-4.68c1-.91,3.28-.17,4.68.72,1.58,1,2.29,2.4,3.6,5a36.69,36.69,0,0,1,2.16,5.4Z" transform="translate(-248.89 -397.05)"/><path class="cls-3" d="M302.76,437.85c-2.28-1.66-5.48-5.22-4.53-7.66.88-2.26,4.44-1.3,6.58-4.42,1.55-2.25.28-3.57,1.85-5.39,2-2.36,6.75-3.06,9.27-1.31,1.19.83,1.72,2.08,2.7,1.95s1-1.44,2-2c2.15-1.18,7.3,1.94,7.09,4.21-.23,2.47-7.2,1.91-9,6.37-.88,2.14.36,3.14-.76,5.62-1.5,3.35-5.19,4.52-5.65,4.66C307.56,441.34,303.58,438.45,302.76,437.85Z" transform="translate(-248.89 -397.05)"/><path class="cls-2" d="M264.06,446.24" transform="translate(-248.89 -397.05)"/><path class="cls-3" d="M290.14,413.67" transform="translate(-248.89 -397.05)"/><path class="cls-5" d="M293.42,411.14c1.89,2,7.3-.46,9.72-1.94,2.22-1.35,5.76-3.51,5.55-6.8a6.15,6.15,0,0,0-4.86-5.26c-3.36-.64-6,2.3-7.31,3.83C293.89,403.94,291.57,409.2,293.42,411.14Z" transform="translate(-248.89 -397.05)"/><path class="cls-6" d="M293.66,411.19c0-.31,1.48-.28,2.86-.57s2.44-1,4.52-2.38c2.89-1.91,4.34-2.87,5.52-4.65.93-1.42,1.28-2.67,1.68-2.58s.6,1.57.4,2.8c-.63,3.8-5.16,5.88-7.9,7.12a8.76,8.76,0,0,1-5.88.89C294.75,411.78,293.63,411.47,293.66,411.19Z" transform="translate(-248.89 -397.05)"/><path class="cls-6" d="M296.06,414.33" transform="translate(-248.89 -397.05)"/><path class="cls-6" d="M311.41,401.91" transform="translate(-248.89 -397.05)"/></svg>